<?xml version="1.0" standalone="no"?>
<!DOCTYPE svg PUBLIC "-//W3C//DTD SVG 20010904//EN"
 "http://www.w3.org/TR/2001/REC-SVG-20010904/DTD/svg10.dtd">
<svg version="1.0" xmlns="http://www.w3.org/2000/svg"
 width="642.000000pt" height="627.000000pt" viewBox="0 0 642.000000 627.000000"
 preserveAspectRatio="xMidYMid meet">

<g transform="translate(0.000000,627.000000) scale(0.100000,-0.100000)"
fill="#000000" stroke="none">
<path d="M2579 6245 c-159 -28 -215 -41 -398 -97 -788 -238 -1466 -810 -1845
-1558 -159 -312 -263 -650 -312 -1015 -24 -180 -25 -588 -1 -768 109 -815 509
-1528 1142 -2038 466 -375 1044 -610 1649 -670 175 -17 586 -6 746 20 359 58
640 149 955 309 161 82 387 228 525 338 120 96 392 370 488 491 376 476 608
1050 662 1638 15 159 12 479 -5 631 -119 1068 -789 2007 -1757 2464 -284 133
-528 209 -840 260 -108 18 -168 20 -498 19 -347 0 -385 -2 -511 -24z m912 -39
c697 -98 1303 -403 1784 -898 457 -471 738 -1032 836 -1671 27 -171 37 -543
20 -724 -68 -718 -371 -1363 -881 -1873 -473 -473 -1035 -755 -1720 -863 -114
-18 -179 -21 -420 -21 -297 -1 -369 5 -600 50 -381 73 -765 233 -1100 457
-159 106 -292 217 -460 386 -248 248 -407 466 -560 766 -388 760 -435 1670
-126 2468 160 414 371 735 700 1062 247 247 486 420 781 565 361 179 712 275
1145 314 93 8 499 -4 601 -18z"/>
<path d="M2550 4657 c0 -471 2 -485 67 -609 21 -40 61 -94 95 -128 220 -218
576 -214 791 8 35 37 78 95 96 130 59 117 61 135 61 599 l0 423 -555 0 -555 0
0 -423z m794 -75 c124 -217 226 -396 226 -398 0 -3 -23 -4 -52 -2 l-52 3 -208
360 c-188 325 -206 361 -194 380 7 11 19 31 25 44 7 13 17 19 21 15 5 -5 110
-186 234 -402z m-150 -84 c97 -169 176 -310 176 -313 0 -3 -22 -5 -49 -5 l-48
0 -160 277 -161 276 27 43 c14 24 28 40 32 36 4 -4 86 -145 183 -314z m-145
-87 c66 -117 121 -217 121 -222 0 -5 -22 -9 -48 -9 l-48 0 -107 184 c-59 102
-107 190 -107 196 0 6 10 29 23 50 17 30 25 36 33 27 6 -7 66 -108 133 -226z
m-156 -76 c42 -74 77 -139 77 -145 0 -5 -22 -10 -49 -10 l-49 0 -56 99 c-31
54 -56 104 -56 109 0 15 40 82 49 82 4 0 41 -61 84 -135z m-150 -84 c15 -27
27 -54 27 -60 0 -7 -24 -11 -65 -11 -36 0 -65 2 -65 5 0 11 62 115 68 115 4 0
19 -22 35 -49z"/>
<path d="M1240 3034 l0 -456 213 4 212 3 55 31 c64 36 112 105 130 188 18 78
24 290 11 391 -15 111 -54 201 -104 239 -62 48 -111 56 -324 56 l-193 0 0
-456z m356 291 c26 -11 40 -26 56 -62 19 -43 22 -67 22 -213 1 -189 -10 -247
-56 -285 -26 -22 -39 -25 -109 -25 l-79 0 0 300 0 300 65 0 c36 0 81 -7 101
-15z"/>
<path d="M1970 3035 l0 -455 245 0 245 0 0 80 0 80 -150 0 -151 0 3 123 3 122
138 3 137 3 0 74 0 75 -140 0 -140 0 0 100 0 100 150 0 150 0 0 75 0 75 -245
0 -245 0 0 -455z"/>
<path d="M2761 3423 c-11 -37 -65 -230 -121 -428 -55 -198 -105 -373 -110
-388 l-9 -28 96 3 97 3 17 70 c9 39 20 82 23 98 l6 27 134 0 135 0 23 -100 23
-100 98 0 c71 0 97 3 97 13 -1 6 -56 210 -124 452 l-122 440 -122 3 -121 3
-20 -68z m180 -284 c22 -90 42 -172 45 -181 5 -16 -4 -18 -91 -18 -73 0 -96 3
-93 13 3 6 24 89 48 184 25 95 46 170 48 169 2 -2 21 -77 43 -167z"/>
<path d="M3340 3035 l0 -455 90 0 90 0 2 218 3 217 108 -217 107 -218 111 0
111 0 -30 53 c-56 100 -232 434 -232 440 0 3 58 98 129 212 l129 205 -99 0
-98 0 -118 -197 -118 -198 -3 198 -2 197 -90 0 -90 0 0 -455z"/>
<path d="M4050 3035 l0 -455 90 0 90 0 0 455 0 455 -90 0 -90 0 0 -455z"/>
<path d="M4350 3035 l0 -455 85 0 85 0 2 289 3 289 116 -287 117 -286 106 -3
106 -3 0 456 0 455 -85 0 -85 0 -2 -274 -3 -274 -106 271 -105 272 -117 3
-117 3 0 -456z"/>
<path d="M1268 2352 l-28 -3 0 -187 c0 -170 2 -190 20 -220 26 -42 74 -62 150
-62 76 0 124 20 150 62 18 30 20 50 20 219 0 102 -2 188 -5 191 -3 2 -18 3
-34 0 l-29 -4 -4 -180 c-3 -175 -4 -180 -27 -199 -34 -28 -121 -27 -147 2 -17
19 -19 41 -22 198 -2 97 -6 178 -10 181 -4 3 -19 4 -34 2z"/>
<path d="M1732 2353 l-22 -4 2 -232 3 -232 33 -3 32 -3 0 160 c0 89 3 161 8
161 4 0 53 -71 108 -158 98 -152 103 -157 138 -160 l36 -3 0 235 c0 129 -3
237 -8 239 -4 3 -19 3 -35 0 l-27 -5 0 -159 c0 -88 -3 -159 -7 -159 -5 1 -44
58 -88 127 -98 154 -133 203 -143 202 -4 -1 -17 -4 -30 -6z"/>
<path d="M2223 2353 l-23 -4 0 -235 0 -234 35 0 35 0 -2 237 c-2 147 -7 237
-13 238 -5 1 -20 0 -32 -2z"/>
<path d="M2372 2352 c-9 -6 8 -66 66 -238 l77 -229 34 0 34 0 76 228 c80 240
81 250 25 239 -13 -2 -26 -8 -29 -12 -3 -4 -27 -83 -53 -175 -27 -93 -51 -164
-54 -159 -3 5 -27 81 -53 169 -26 88 -50 163 -53 166 -13 12 -57 18 -70 11z"/>
<path d="M3765 2350 c-78 -12 -105 -40 -105 -110 0 -61 26 -96 108 -147 78
-49 97 -72 88 -107 -10 -41 -76 -56 -159 -37 -35 8 -39 7 -49 -15 -17 -37 0
-47 90 -52 137 -8 192 27 192 121 0 62 -29 104 -98 143 -61 35 -102 73 -102
96 0 33 43 50 115 46 56 -2 68 0 77 16 7 13 7 22 -3 31 -17 15 -98 23 -154 15z"/>
<path d="M4067 2352 l-27 -3 2 -232 3 -232 35 0 35 0 3 226 c3 245 2 248 -51
241z"/>
<path d="M4614 2346 c-3 -8 25 -74 63 -147 66 -130 68 -137 73 -224 l5 -90 33
-3 32 -3 0 80 c0 81 0 82 76 233 79 158 82 175 24 161 -14 -3 -26 -6 -26 -7
-1 -1 -25 -48 -54 -106 l-52 -105 -53 105 c-29 58 -60 107 -71 111 -29 12 -44
10 -50 -5z"/>
<path d="M2830 2120 l0 -231 143 3 142 3 3 27 3 27 -108 3 -108 3 0 65 0 65
93 3 92 3 0 29 0 29 -92 3 -93 3 -3 62 -3 62 108 3 108 3 0 30 0 30 -142 3
-143 3 0 -231z"/>
<path d="M3234 2337 c-2 -7 -3 -111 -2 -232 l3 -220 32 -3 32 -3 3 88 3 88 40
0 c40 0 41 -1 91 -85 48 -79 53 -85 88 -88 23 -2 36 1 36 9 0 7 -20 47 -45 90
-25 43 -45 81 -45 84 0 3 7 5 15 5 9 0 27 11 40 25 22 21 25 33 25 103 0 128
-33 152 -213 152 -70 0 -99 -4 -103 -13z m230 -79 c20 -28 21 -88 2 -113 -11
-15 -27 -19 -87 -19 l-74 -1 -3 78 -3 77 75 0 c66 0 77 -3 90 -22z"/>
<path d="M4206 2325 c-10 -39 -1 -45 69 -45 l65 0 2 -197 3 -198 33 -3 32 -3
0 200 0 200 68 3 67 3 0 30 0 30 -166 3 -167 2 -6 -25z"/>
</g>
</svg>
